<?xml version="1.0" standalone="no"?>
<!DOCTYPE svg PUBLIC "-//W3C//DTD SVG 20010904//EN"
 "http://www.w3.org/TR/2001/REC-SVG-20010904/DTD/svg10.dtd">
<svg version="1.0" xmlns="http://www.w3.org/2000/svg"
 width="487.000000pt" height="487.000000pt" viewBox="0 0 487.000000 487.000000"
 preserveAspectRatio="xMidYMid meet">
<metadata>
Created by potrace 1.14, written by Peter Selinger 2001-2017
</metadata>
<g transform="translate(0.000000,487.000000) scale(0.100000,-0.100000)"
fill="#000000" stroke="none">
<path d="M2252 4814 c-14 -15 -7 -18 55 -16 18 1 35 -3 38 -8 3 -6 14 -10 24
-10 10 0 47 -16 82 -35 35 -19 72 -38 82 -41 9 -4 17 -10 17 -15 0 -5 7 -9 15
-9 7 0 19 -8 24 -17 6 -10 11 -15 11 -11 0 9 3 6 105 -78 82 -67 130 -118 151
-157 22 -40 23 -141 4 -214 -10 -34 -15 -64 -13 -66 2 -2 4 -21 5 -41 1 -20 4
-36 7 -36 4 0 7 -13 7 -30 1 -21 -3 -30 -14 -30 -8 0 -12 3 -9 7 4 3 -5 17
-19 30 -14 12 -22 23 -17 23 4 0 -3 7 -15 16 -12 8 -22 21 -22 27 0 7 -13 21
-29 32 -17 11 -28 21 -26 23 2 3 -19 29 -48 59 -29 30 -53 59 -55 64 -2 5 -8
9 -13 9 -5 0 -24 15 -42 33 -17 18 -40 36 -50 40 -10 4 -15 11 -12 17 3 6 -1
7 -10 4 -9 -4 -14 -9 -12 -13 2 -3 10 -21 17 -38 8 -18 18 -33 22 -33 4 0 5
-7 2 -15 -4 -8 -1 -15 5 -15 6 0 11 -4 11 -10 0 -40 142 -287 172 -298 4 -2 8
-10 8 -18 0 -8 4 -14 9 -14 4 0 30 -28 57 -62 27 -35 57 -71 67 -80 9 -10 15
-18 12 -18 -2 0 6 -11 18 -24 37 -41 48 -56 40 -56 -4 0 -1 -5 7 -11 13 -9 13
-10 -2 -6 -9 3 -19 3 -23 -1 -3 -3 -16 -7 -28 -9 -48 -4 -77 -10 -83 -15 -3
-3 -20 -2 -37 2 -18 5 -50 11 -72 14 -140 19 -150 26 -390 277 -80 83 -165
161 -165 151 0 -3 -8 3 -19 12 -10 9 -30 19 -45 22 -24 4 -25 3 -14 -16 7 -11
16 -20 19 -20 3 0 17 -10 31 -22 14 -13 36 -32 49 -43 13 -11 39 -32 57 -47
19 -16 30 -28 26 -28 -3 0 5 -9 20 -21 14 -11 26 -27 26 -35 0 -8 5 -14 10
-14 6 0 10 -6 10 -14 0 -8 7 -16 15 -20 8 -3 15 -12 15 -21 0 -8 5 -15 10 -15
6 0 10 -6 10 -13 0 -14 82 -93 120 -115 67 -40 90 -51 90 -44 0 4 6 0 13 -9 7
-9 16 -16 20 -16 4 -1 18 -4 30 -8 12 -4 25 -7 30 -6 4 1 7 -4 7 -9 0 -5 3 -9
8 -8 4 1 27 -5 52 -12 25 -8 48 -14 53 -16 4 -1 8 -2 10 -4 1 -1 10 -3 21 -5
26 -5 106 -48 106 -57 0 -5 5 -8 12 -8 13 0 94 -82 148 -149 19 -24 44 -54 55
-66 26 -27 43 -65 39 -87 -1 -10 1 -18 5 -18 10 0 0 -157 -15 -215 -9 -38 -45
-118 -57 -126 -5 -3 -9 -10 -9 -15 0 -5 -18 -39 -39 -76 -21 -36 -39 -71 -39
-77 0 -6 -4 -11 -10 -11 -5 0 -10 -7 -10 -15 0 -8 -4 -15 -8 -15 -5 0 -14 -16
-22 -35 -8 -19 -16 -35 -20 -35 -3 0 -19 -25 -35 -55 -15 -30 -33 -55 -38 -55
-6 0 -7 -3 -4 -6 4 -4 -2 -19 -12 -33 -51 -74 -28 -88 41 -23 29 27 77 71 107
98 30 27 63 57 73 66 10 10 23 18 29 18 5 0 7 5 4 10 -3 6 -1 10 5 10 6 0 33
22 60 48 28 27 52 47 54 45 10 -10 49 114 52 169 3 35 9 67 14 72 5 5 5 16 1
25 -11 20 -9 152 2 169 5 6 5 17 2 22 -3 6 -1 10 6 10 11 0 9 44 -6 108 -3 12
-7 31 -9 42 -3 11 0 20 5 20 6 0 7 5 3 11 -4 7 -8 27 -9 46 -1 19 -8 38 -14
43 -7 4 -12 10 -12 14 1 7 -6 20 -67 116 -22 36 -46 79 -53 95 -12 30 -14 37
-23 130 -3 28 -8 66 -12 85 -3 19 -7 48 -9 65 -2 16 -4 30 -5 30 -2 0 -9 33
-14 70 -3 17 -5 30 -6 30 -3 0 -21 107 -23 133 0 6 -4 12 -9 12 -5 0 -7 4 -4
9 7 11 -28 121 -61 190 -34 71 -132 166 -257 250 -28 19 -54 38 -57 44 -3 5
-10 9 -15 10 -5 0 -33 16 -63 35 -141 90 -284 133 -319 96z"/>
<path d="M1972 4670 c-12 -11 -26 -20 -32 -20 -5 0 -10 -4 -10 -10 0 -12 -48
-60 -60 -60 -6 0 -10 -5 -10 -10 0 -6 -12 -23 -27 -39 -36 -35 -64 -71 -58
-71 3 0 -3 -8 -12 -18 -10 -10 -25 -29 -33 -41 -8 -13 -30 -42 -47 -65 -18
-22 -33 -47 -33 -53 0 -7 -5 -13 -11 -13 -5 0 -7 -4 -4 -10 3 -5 2 -10 -2 -10
-7 0 -32 -53 -39 -82 -1 -5 -3 -10 -4 -13 -1 -3 -4 -9 -5 -15 -1 -5 -4 -12 -5
-15 -1 -3 -3 -8 -5 -12 -1 -5 -7 -21 -14 -38 -7 -16 -13 -38 -14 -47 -1 -10
-4 -18 -7 -18 -3 0 -6 -8 -7 -17 0 -10 -4 -29 -8 -43 -4 -14 -7 -31 -7 -37 -1
-7 -5 -13 -10 -13 -5 0 -7 -4 -4 -9 5 -7 -29 -120 -51 -171 -6 -14 -9 -25 -16
-52 -2 -7 -11 -30 -20 -52 -9 -21 -17 -42 -17 -46 0 -5 -10 -30 -22 -57 -12
-26 -21 -51 -20 -55 1 -5 -1 -8 -6 -8 -10 0 -36 -60 -29 -67 11 -10 34 22 68
93 19 38 34 71 35 74 0 3 4 12 7 20 18 40 69 187 70 198 0 6 3 12 7 12 4 0 7
6 8 13 1 6 11 46 22 87 12 41 24 89 27 105 3 17 8 32 11 35 4 3 8 10 9 16 1 5
13 40 27 76 13 36 22 69 19 72 -4 3 -1 6 5 6 7 0 12 3 11 8 -2 14 13 52 21 52
5 0 11 8 15 19 4 15 63 97 104 147 6 7 7 14 4 17 -3 3 4 12 16 19 12 7 21 16
21 21 0 9 61 77 138 152 28 28 52 54 52 58 0 14 -27 7 -48 -13z"/>
<path d="M3624 4398 c-6 -7 -16 -26 -24 -43 -8 -16 -62 -75 -118 -132 -57 -57
-100 -103 -95 -103 4 0 0 -6 -9 -13 -19 -15 -83 -127 -72 -127 3 0 1 -7 -6
-15 -7 -8 -9 -15 -5 -15 4 0 3 -6 -2 -12 -5 -7 -8 -44 -6 -83 5 -97 6 -105 16
-105 4 0 6 -4 3 -9 -3 -5 1 -27 9 -50 8 -23 14 -45 15 -49 1 -24 27 -83 51
-120 16 -24 29 -47 29 -53 0 -5 4 -9 8 -9 5 0 17 -8 28 -17 26 -24 84 -56 84
-47 0 3 6 2 13 -3 6 -6 26 -8 42 -6 76 9 101 8 122 -1 13 -6 23 -14 23 -18 0
-4 9 -5 20 -3 11 2 20 0 20 -4 0 -11 115 -4 138 8 11 6 22 7 26 4 3 -3 6 -1 6
5 0 7 3 11 8 10 9 -3 60 30 95 61 34 32 102 128 111 159 4 12 11 22 15 22 7 0
10 21 13 90 2 62 -9 117 -33 170 -12 25 -25 54 -30 65 -13 28 -18 84 -9 90 12
7 0 45 -14 45 -13 0 -50 -53 -64 -90 -11 -30 -6 -91 9 -101 6 -3 11 -10 11
-15 0 -5 9 -26 20 -47 22 -44 23 -119 1 -153 -7 -11 -10 -24 -7 -27 4 -4 1
-13 -6 -22 -7 -9 -10 -18 -7 -21 12 -12 -67 -89 -126 -123 -54 -30 -136 -58
-164 -56 -13 1 -23 -1 -23 -4 0 -3 -16 -6 -35 -6 -19 0 -35 4 -35 9 0 5 -3 7
-6 3 -4 -3 -19 0 -34 8 -15 8 -30 11 -34 8 -3 -4 -6 -1 -6 5 0 6 -9 13 -19 17
-27 8 -92 61 -84 68 3 4 -2 9 -11 13 -9 3 -16 11 -16 16 0 13 -32 81 -41 88
-4 3 -9 25 -13 49 -3 24 -8 46 -11 49 -2 3 0 13 6 23 6 13 6 19 -1 19 -12 0
-9 22 5 32 6 5 6 8 -1 8 -8 0 -10 13 -7 38 3 20 5 47 6 60 0 12 4 22 7 22 3 0
11 14 19 32 16 36 26 49 94 122 26 28 59 70 73 93 24 39 61 152 60 182 -1 19
-21 25 -32 9z"/>
<path d="M3835 4243 c-45 -12 -145 -101 -145 -130 0 -7 -3 -13 -7 -13 -15 0
-8 -50 7 -55 8 -2 39 -3 68 -3 43 1 55 6 64 22 6 12 11 22 10 24 -1 1 -2 3 -1
5 2 6 8 35 14 67 3 19 10 39 16 45 11 11 12 46 2 44 -5 -1 -17 -4 -28 -6z"/>
<path d="M1886 4133 c-4 -5 -11 -8 -14 -9 -35 -4 -117 -71 -169 -137 -16 -19
-64 -105 -63 -112 0 -3 0 -6 -1 -7 -1 -4 -6 -24 -22 -90 -8 -32 -12 -60 -9
-62 3 -3 0 -11 -6 -18 -5 -7 -13 -31 -16 -53 -16 -97 -18 -112 -20 -140 -3
-38 -27 -105 -38 -105 -4 0 -8 -7 -8 -15 0 -8 -4 -15 -10 -15 -5 0 -10 -6 -10
-14 0 -8 -4 -16 -8 -18 -4 -1 -32 -36 -62 -75 -29 -40 -58 -73 -62 -73 -5 0
-7 -4 -3 -9 3 -5 -5 -17 -17 -25 -12 -9 -20 -16 -16 -16 8 0 -34 -49 -102
-119 -58 -59 -62 -69 -64 -138 -1 -24 -5 -43 -11 -43 -7 0 -7 -3 0 -8 6 -4 10
-14 10 -22 0 -8 -4 -18 -10 -22 -7 -5 -7 -8 0 -8 11 0 12 -91 1 -109 -4 -6 -3
-11 2 -11 5 0 9 -10 9 -22 1 -56 3 -64 13 -48 8 12 10 12 10 1 0 -8 3 -11 7
-8 3 4 21 -14 38 -41 18 -26 42 -56 54 -66 21 -19 21 -19 21 2 0 12 -4 22 -10
22 -5 0 -10 6 -10 13 0 6 -9 23 -20 37 -11 14 -20 33 -20 43 0 9 -5 17 -12 17
-6 0 -9 3 -5 6 3 3 2 17 -4 31 -15 40 -21 83 -24 173 -3 101 10 140 63 190 20
19 51 53 67 75 17 21 37 47 45 56 40 43 150 189 150 199 0 5 4 10 8 10 8 0 36
51 32 59 -1 2 3 7 8 10 6 4 13 20 16 36 2 17 5 31 6 33 2 1 3 10 4 20 6 49 22
145 32 190 4 15 8 38 9 52 2 14 4 25 5 25 3 0 12 39 13 58 1 9 5 17 9 17 4 0
7 3 6 8 -3 11 31 77 53 101 11 11 17 21 13 21 -4 0 11 18 32 39 21 22 42 38
46 35 4 -3 8 -1 8 4 0 5 14 15 30 22 27 11 50 36 50 54 0 8 -15 7 -24 -1z"/>
<path d="M3690 3998 c-19 -5 -42 -10 -51 -12 -53 -13 -177 -105 -162 -120 4
-3 1 -6 -5 -6 -9 0 -21 -22 -28 -52 -1 -5 -3 -9 -4 -10 -7 -7 -6 -78 1 -78 5
0 9 -9 9 -19 0 -11 6 -26 13 -33 6 -7 12 -17 12 -23 0 -17 47 -99 64 -112 9
-7 36 -22 61 -34 25 -11 52 -25 60 -29 32 -15 190 10 190 31 0 5 7 9 15 9 19
0 84 65 107 106 39 69 37 155 -3 241 -23 48 -59 87 -103 109 -57 29 -131 42
-176 32z m28 -157 c23 -36 33 -42 61 -36 27 7 43 21 60 53 8 15 21 22 41 22
17 0 30 -4 30 -10 0 -5 6 -10 14 -10 16 0 38 -57 42 -107 1 -19 -3 -33 -9 -33
-8 0 -8 -3 0 -11 9 -9 7 -22 -9 -53 -21 -42 -93 -117 -103 -108 -3 3 -5 0 -5
-7 0 -7 -4 -9 -10 -6 -5 3 -10 1 -10 -6 0 -7 -3 -10 -6 -6 -3 3 -17 2 -30 -3
-55 -21 -112 -22 -157 -2 -46 21 -87 51 -87 65 0 5 -7 15 -15 23 -13 13 -20
42 -16 67 0 4 -4 7 -9 7 -12 0 -10 59 2 66 5 3 6 9 3 14 -3 5 1 22 9 37 14 25
23 17 16 -12 -13 -49 10 -98 74 -160 55 -53 105 -69 152 -49 19 8 37 21 40 29
4 8 10 12 15 9 5 -3 9 -2 9 3 0 4 11 21 25 37 31 36 34 70 6 61 -42 -13 -98
-15 -126 -3 -35 14 -75 56 -75 79 0 8 -5 20 -12 27 -9 9 -9 12 0 12 6 0 9 7 5
16 -15 41 49 36 75 -5z"/>
<path d="M2565 3576 c-45 -25 -75 -48 -75 -56 0 -5 17 -16 38 -25 20 -9 43
-20 51 -24 16 -8 91 24 91 39 0 10 -47 57 -70 69 -9 5 -24 4 -35 -3z"/>
<path d="M1891 3486 c-5 -6 -8 -65 -6 -131 2 -99 6 -127 23 -160 21 -40 87
-115 102 -115 13 0 5 31 -11 41 -8 5 -11 9 -7 9 5 0 -2 12 -15 26 -25 29 -50
92 -41 105 3 5 2 9 -3 9 -8 0 -9 151 -1 167 2 4 3 14 2 21 -1 6 -2 18 -3 25
-1 16 -28 18 -40 3z"/>
<path d="M2328 3465 c-25 -26 -26 -31 -31 -221 -5 -153 1 -170 51 -148 18 7
32 18 32 24 0 6 4 9 9 6 5 -4 11 -2 13 4 2 6 13 12 26 15 12 2 20 0 18 -4 -6
-8 33 -49 40 -43 11 7 74 -32 95 -59 12 -16 29 -29 37 -29 13 0 82 64 82 77 0
3 10 19 23 36 58 82 65 106 71 230 2 66 0 79 -15 87 -12 7 -21 5 -29 -5 -7 -9
-15 -13 -18 -11 -2 3 -17 -1 -33 -10 -16 -8 -29 -12 -29 -9 0 3 -15 -1 -32 -8
-36 -14 -47 -15 -63 -6 -5 4 -23 9 -40 13 -39 10 -98 37 -107 50 -4 6 -8 7 -8
2 0 -5 -8 0 -17 10 -25 26 -49 26 -75 -1z"/>
<path d="M3352 3364 c-7 -8 -10 -19 -6 -26 4 -6 3 -8 -4 -5 -7 5 -9 -7 -6 -34
7 -70 23 -119 41 -119 8 0 58 -21 109 -46 63 -31 111 -47 150 -51 66 -7 71 8
13 40 -19 11 -35 23 -37 28 -2 5 -8 9 -13 9 -5 0 -22 14 -37 31 -155 173 -186
199 -210 173z"/>
<path d="M3985 3330 c-13 -25 -22 -30 -51 -30 -19 0 -43 4 -52 9 -23 12 -44
-10 -28 -30 12 -16 84 -54 101 -53 58 3 94 63 71 117 -12 25 -23 21 -41 -13z"/>
<path d="M3600 3333 c0 -7 -9 -13 -20 -13 -11 0 -20 -5 -20 -11 0 -5 -4 -7
-10 -4 -15 9 -12 -8 7 -35 18 -26 84 -89 93 -90 3 0 32 -20 64 -44 73 -54 108
-57 154 -14 27 25 30 32 21 49 -6 12 -13 18 -16 15 -8 -7 -61 30 -100 71 -40
42 -124 87 -133 72 -10 -14 -21 -14 -31 3 -7 10 -9 10 -9 1z"/>
<path d="M3349 3108 c-6 -11 -13 -31 -15 -46 -5 -28 15 -111 28 -113 13 -2 48
-1 51 1 1 1 44 4 95 7 78 4 98 1 125 -14 44 -26 100 -19 120 14 4 7 14 13 22
13 14 0 14 37 1 59 -7 11 -42 11 -61 -1 -14 -8 -136 -7 -155 2 -67 32 -110 56
-110 61 0 7 -9 11 -63 28 -22 8 -29 6 -38 -11z"/>
<path d="M2906 3107 c-13 -11 -13 -14 -1 -31 8 -11 15 -16 15 -12 0 5 6 4 13
-1 6 -5 19 -9 27 -8 8 1 22 -2 31 -6 10 -5 19 -1 26 10 9 15 6 21 -16 34 -37
22 -76 28 -95 14z"/>
<path d="M2176 3060 c-36 -9 -74 -24 -85 -34 -21 -19 -57 -86 -53 -98 1 -5 -3
-8 -9 -8 -5 0 -7 -5 -4 -10 3 -6 -1 -13 -10 -16 -13 -6 -14 -8 -3 -15 19 -12
22 -12 54 16 16 14 30 21 32 16 4 -11 42 -2 42 10 0 5 3 8 8 7 13 -3 62 25 62
35 0 6 3 8 6 4 4 -3 22 12 40 35 25 29 32 44 24 53 -5 6 -8 14 -5 16 9 9 -35
4 -99 -11z"/>
<path d="M2423 3063 c-7 -3 -13 -11 -13 -19 0 -9 4 -13 9 -10 11 7 63 -43 56
-54 -3 -5 -1 -10 5 -12 5 -1 11 -12 13 -23 2 -11 7 -29 11 -40 5 -11 13 -33
18 -48 16 -42 70 -78 124 -83 27 -3 52 0 60 7 8 6 14 8 14 4 0 -5 9 2 20 15
29 33 21 44 -39 52 -54 6 -111 45 -111 75 0 8 -4 11 -10 8 -5 -3 -10 1 -10 10
0 18 -18 51 -41 75 -19 20 -90 49 -106 43z"/>
<path d="M2363 3011 c-11 -8 -10 -20 7 -53 22 -46 97 -85 97 -52 0 8 -4 14 -9
14 -4 0 -8 6 -8 13 0 7 -9 23 -19 34 -11 12 -18 23 -16 25 7 6 -43 25 -52 19z"/>
<path d="M2835 3010 c-11 -4 -46 -10 -78 -13 -32 -3 -61 -8 -64 -11 -9 -9 6
-36 24 -43 10 -4 20 -9 23 -13 8 -10 77 -40 92 -40 23 -1 92 -37 120 -64 17
-16 28 -21 31 -13 4 11 1 20 -23 67 -9 17 -7 20 14 20 34 0 40 15 20 49 -30
50 -107 80 -159 61z"/>
<path d="M1511 2939 c-13 -10 -19 -19 -15 -19 5 -1 -1 -9 -14 -20 -13 -10 -22
-20 -20 -22 2 -2 -12 -21 -29 -43 -18 -22 -33 -43 -33 -47 0 -4 -6 -25 -13
-45 -7 -21 -12 -45 -12 -53 2 -28 16 -60 25 -55 5 3 10 -1 13 -7 5 -15 39 47
35 65 -2 14 30 117 42 132 5 6 9 13 9 17 2 13 36 83 43 88 4 3 4 11 0 17 -5 8
-14 5 -31 -8z"/>
<path d="M915 2924 c-11 -8 -20 -19 -20 -24 0 -5 -8 -18 -17 -30 -10 -11 -15
-20 -12 -20 4 0 1 -6 -5 -13 -6 -8 -8 -17 -4 -20 3 -4 2 -7 -3 -7 -5 0 -10 -8
-11 -17 -1 -10 -6 -40 -12 -67 -7 -38 -6 -61 6 -98 9 -26 20 -48 25 -48 5 0 6
-4 3 -10 -3 -5 -1 -10 4 -10 6 0 11 -5 11 -11 0 -6 9 -24 21 -40 11 -16 18
-29 16 -29 -6 0 46 -60 94 -109 47 -47 97 -91 105 -91 3 0 12 -6 19 -12 33
-29 45 -38 45 -33 0 3 15 -2 33 -11 l32 -17 -20 23 c-11 13 -36 37 -55 54
-110 96 -152 160 -164 251 -3 28 -9 64 -12 81 -5 35 19 55 34 29 4 -8 22 -17
39 -21 29 -6 31 -5 29 25 0 17 -4 31 -8 31 -5 0 -7 3 -6 8 1 4 -5 27 -12 52
-8 25 -15 54 -16 65 -1 11 -3 39 -5 62 -4 54 -24 63 -41 18 -6 -19 -16 -35
-21 -35 -4 0 -6 -4 -3 -8 3 -5 -2 -9 -10 -9 -8 0 -13 6 -10 14 3 7 1 13 -4 13
-6 0 -10 10 -11 23 0 12 -3 30 -7 39 -6 15 -9 15 -27 2z"/>
<path d="M3366 2895 c-12 -11 -25 -30 -28 -42 -6 -24 14 -49 32 -38 5 3 10 1
10 -5 0 -8 6 -8 21 0 33 18 111 16 142 -4 15 -10 27 -22 27 -27 0 -11 41 -2
57 13 11 12 16 47 11 90 -2 21 -72 39 -105 27 -13 -5 -25 -4 -29 2 -4 7 -10 7
-18 0 -7 -6 -16 -8 -19 -4 -15 15 -79 7 -101 -12z"/>
<path d="M2302 2894 c-7 -8 -17 -12 -22 -9 -4 3 -11 -2 -14 -11 -3 -8 -10 -12
-16 -9 -5 3 -10 -1 -10 -9 0 -18 3 -19 90 -16 74 2 86 6 69 26 -28 34 -78 48
-97 28z"/>
<path d="M3697 2845 c-15 -15 -25 -30 -22 -35 3 -5 1 -18 -4 -29 -11 -20 -2
-24 66 -37 25 -4 73 -29 73 -37 0 -5 4 -6 9 -2 5 3 15 0 23 -7 7 -7 20 -14 28
-16 8 -2 17 -8 18 -13 2 -5 8 -7 13 -3 5 3 9 0 9 -5 0 -6 4 -11 9 -11 10 0 8
27 -4 55 -19 45 -66 103 -103 128 -61 40 -82 42 -115 12z"/>
<path d="M1895 2841 c-74 -27 -137 -61 -162 -87 -12 -13 -27 -24 -33 -24 -6 0
-8 -4 -5 -10 3 -5 1 -10 -4 -10 -6 0 -11 -6 -11 -14 0 -8 -11 -28 -24 -43
l-24 -28 3 93 c1 52 -1 92 -7 92 -13 0 -47 -80 -43 -102 2 -10 1 -18 -3 -18
-8 0 -7 -120 1 -163 6 -28 21 -62 86 -184 31 -60 50 -78 52 -50 0 6 2 21 4 31
2 10 5 42 6 70 4 85 53 203 96 229 6 4 18 13 25 20 7 7 31 26 53 42 64 48 55
64 -19 36 -16 -7 -31 -10 -33 -7 -2 2 20 30 50 62 31 32 53 63 50 71 -3 7 -6
13 -7 13 0 -1 -23 -9 -51 -19z"/>
<path d="M2790 2810 c-14 -14 -19 -25 -12 -28 6 -2 9 -9 6 -15 -6 -16 62 -157
76 -157 11 0 12 2 14 45 1 17 5 36 9 42 4 6 3 14 -3 18 -6 4 -8 10 -5 15 7 12
-15 70 -27 70 -6 0 -16 7 -23 17 -11 15 -14 14 -35 -7z"/>
<path d="M2389 2788 c0 -7 -2 -21 -4 -30 -2 -10 1 -21 6 -24 6 -3 5 -11 -2
-20 -9 -11 -9 -14 1 -14 9 0 10 -3 1 -13 -6 -8 -8 -17 -4 -20 3 -4 3 -7 -2 -7
-4 0 -25 18 -46 40 -21 22 -41 35 -44 30 -4 -6 -8 -33 -9 -60 -3 -46 -36 -108
-70 -132 -6 -4 -7 -8 -2 -8 5 0 -1 -9 -13 -19 -13 -11 -20 -25 -16 -30 3 -6 2
-11 -3 -11 -4 0 -8 -19 -7 -42 1 -24 -3 -49 -8 -55 -5 -7 -6 -13 -1 -13 5 0
10 -35 11 -78 1 -92 7 -153 14 -167 3 -5 4 -20 3 -32 0 -13 3 -23 8 -23 6 0 8
-6 5 -13 -3 -7 1 -24 9 -38 7 -13 14 -19 14 -14 0 6 5 3 10 -5 8 -12 10 -10
10 10 4 150 11 228 26 282 9 34 20 68 24 73 4 6 13 27 19 47 8 23 20 40 34 44
29 8 58 34 51 45 -3 5 -1 9 5 9 12 0 33 69 25 82 -3 4 -1 8 3 8 10 0 9 75 -2
138 -4 23 -11 42 -16 42 -5 0 -8 5 -6 11 1 6 -4 14 -10 16 -7 3 -13 -1 -14 -9z"/>
<path d="M3390 2766 c-6 -6 -10 -6 -10 -1 0 5 -8 -2 -17 -15 -10 -14 -17 -28
-15 -32 1 -5 -2 -8 -6 -8 -4 0 -8 -12 -9 -27 0 -34 -10 -115 -23 -203 -5 -36
-12 -92 -16 -125 -3 -33 -10 -67 -15 -77 -6 -10 -5 -19 1 -23 5 -3 6 -15 1
-28 -5 -12 -9 -25 -10 -29 0 -5 -1 -9 -2 -10 -2 -7 -10 -76 -11 -105 -1 -18
-5 -33 -8 -33 -4 0 -7 -12 -7 -27 -1 -16 -5 -48 -9 -73 -4 -25 -8 -57 -9 -72
0 -16 -3 -28 -7 -28 -12 0 13 -48 28 -54 12 -5 16 0 13 20 0 3 8 12 18 21 10
8 11 11 3 7 -11 -6 -10 -2 3 13 9 11 14 22 11 26 -4 3 -3 14 1 24 5 10 9 21 9
25 1 3 4 9 8 13 4 4 4 13 1 21 -3 8 -1 14 3 14 5 0 10 12 11 26 0 15 7 30 15
35 11 7 10 9 -2 9 -11 0 -11 3 -2 12 7 7 12 22 12 35 0 13 4 23 9 23 4 0 7 11
6 25 -2 14 2 25 8 25 5 0 7 3 4 7 -4 3 -1 13 6 21 10 13 9 14 -3 7 -13 -8 -13
-7 -1 8 7 9 10 17 5 17 -4 0 1 7 12 16 10 8 13 13 7 9 -10 -5 -11 0 -3 19 5
14 7 26 4 26 -2 0 2 12 9 28 8 15 12 33 10 40 -3 6 0 12 6 12 5 0 8 9 6 20 -2
11 1 20 6 20 5 0 9 6 8 13 -4 32 2 54 16 54 10 0 13 -6 10 -18 -3 -10 -8 -26
-10 -36 -2 -10 -9 -33 -14 -52 -6 -19 -8 -38 -5 -42 3 -5 1 -9 -3 -9 -5 0 -9
-10 -10 -22 -1 -11 -8 -25 -15 -29 -9 -6 -10 -9 -1 -9 9 0 8 -9 -3 -35 -8 -20
-12 -40 -9 -45 4 -6 1 -10 -5 -10 -6 0 -8 -4 -5 -10 3 -5 2 -10 -3 -10 -6 0
-10 -6 -9 -12 1 -42 -4 -59 -15 -52 -9 5 -9 2 1 -9 7 -9 9 -17 4 -17 -5 0 -10
-9 -11 -20 -4 -42 -6 -50 -11 -50 -3 0 -7 -10 -7 -22 -3 -44 -8 -68 -14 -68
-4 0 -6 -10 -5 -22 1 -13 -2 -34 -7 -46 -12 -35 2 -48 18 -16 10 24 50 149 59
189 1 6 5 17 8 25 8 22 36 123 41 151 3 13 5 25 7 27 2 2 3 5 13 47 5 17 17
61 28 99 11 38 21 76 23 85 2 9 9 30 16 46 7 17 11 38 10 48 -1 9 3 17 9 17 7
0 10 6 7 13 -2 6 2 27 10 45 7 17 11 32 8 32 -3 0 -1 9 5 20 14 27 -11 75 -50
95 -32 17 -124 17 -140 1z m110 -176 c0 -5 -5 -10 -11 -10 -5 0 -7 5 -4 10 3
6 8 10 11 10 2 0 4 -4 4 -10z m-15 -50 c3 -5 1 -10 -4 -10 -6 0 -11 5 -11 10
0 6 2 10 4 10 3 0 8 -4 11 -10z m0 -30 c-3 -5 -10 -10 -16 -10 -5 0 -9 5 -9
10 0 6 7 10 16 10 8 0 12 -4 9 -10z"/>
<path d="M2489 2743 c5 -16 23 -57 41 -93 57 -113 48 -223 -23 -265 -43 -26
-91 -76 -105 -110 -18 -48 -35 -152 -35 -227 -1 -27 -4 -48 -9 -48 -4 0 -5 -7
-1 -16 3 -9 7 -30 8 -48 2 -17 3 -35 4 -40 2 -16 12 0 17 28 7 43 61 153 85
175 13 12 20 21 16 21 -3 0 13 20 36 43 63 65 130 146 146 175 8 15 19 32 26
38 26 27 68 129 70 172 2 52 -33 135 -64 152 -22 11 -22 9 -4 -61 4 -19 8 -41
7 -49 -1 -8 -2 -21 -3 -27 -1 -9 -7 -7 -19 5 -10 9 -18 19 -16 20 1 2 -5 12
-14 21 -28 29 -62 75 -62 83 0 4 -6 8 -14 8 -8 0 -17 8 -20 18 -5 15 -54 52
-69 52 -3 0 -2 -12 2 -27z"/>
<path d="M3790 2679 c0 -6 -4 -8 -9 -4 -5 3 -12 1 -15 -4 -3 -5 15 -23 41 -40
27 -17 53 -34 58 -38 6 -5 28 -17 50 -29 22 -11 50 -27 62 -34 12 -8 26 -10
30 -6 4 5 2 11 -4 13 -7 3 -13 11 -13 19 0 9 -4 12 -10 9 -5 -3 -10 -1 -10 4
0 24 -69 74 -142 105 -22 8 -38 11 -38 5z"/>
<path d="M1499 2663 c-4 -57 3 -104 16 -100 15 5 13 109 -2 114 -7 3 -14 -4
-14 -14z"/>
<path d="M2011 2603 c0 -7 -6 -13 -12 -13 -6 0 -31 -20 -55 -45 -23 -25 -47
-45 -52 -45 -5 0 -25 -16 -45 -35 -20 -19 -33 -35 -30 -35 3 0 -2 -9 -12 -20
-9 -10 -18 -33 -19 -50 0 -16 -4 -30 -8 -30 -3 0 -5 -8 -3 -17 2 -10 4 -18 5
-18 1 0 3 -12 4 -26 2 -14 6 -35 11 -45 5 -10 9 -21 10 -24 7 -30 30 -88 38
-97 5 -7 6 -13 3 -13 -4 0 -1 -6 6 -14 11 -11 36 -44 58 -76 3 -4 26 -19 53
-34 46 -27 47 -27 47 -7 0 12 -4 21 -10 21 -5 0 -10 7 -10 15 0 8 -5 15 -11
15 -5 0 -8 4 -5 9 3 5 -1 21 -9 37 -32 66 -51 278 -27 307 7 7 13 22 15 33 2
10 8 28 12 39 47 119 56 148 52 163 -3 9 -5 11 -6 5z"/>
<path d="M3183 2443 c-30 -61 -172 -213 -231 -248 -17 -11 -32 -23 -32 -27 0
-4 -6 -8 -14 -8 -8 0 -21 -6 -28 -12 -7 -7 -33 -26 -58 -43 -25 -16 -47 -32
-50 -35 -3 -3 -17 -11 -32 -17 -16 -7 -28 -17 -28 -23 0 -6 -4 -8 -10 -5 -6 3
-7 -1 -4 -9 3 -9 10 -16 15 -16 11 0 171 70 185 81 6 5 14 6 17 2 4 -3 7 -1 7
5 0 7 3 11 8 10 9 -3 80 30 115 54 15 11 27 16 27 11 0 -4 5 0 11 10 5 9 15
17 21 17 17 0 79 68 84 93 3 12 7 33 9 47 2 14 7 39 10 55 4 17 8 44 9 61 2
17 6 36 10 43 4 6 3 11 -3 11 -6 0 -23 -26 -38 -57z"/>
<path d="M713 2464 c-14 -13 -30 -24 -34 -24 -17 0 14 -61 52 -102 21 -24 39
-47 39 -51 0 -5 4 -6 9 -3 4 3 19 -6 31 -19 13 -14 29 -25 36 -25 7 0 14 -4
16 -8 5 -13 129 -73 138 -67 5 3 11 1 15 -4 7 -12 35 -3 35 10 0 5 -7 9 -15 9
-8 0 -15 5 -15 10 0 5 -4 9 -8 7 -19 -5 -116 79 -107 93 3 5 26 0 50 -10 25
-11 45 -17 45 -14 0 2 9 0 20 -6 33 -18 23 -2 -35 56 -31 30 -53 54 -49 54 11
0 -52 56 -89 79 -21 13 -54 27 -73 31 -29 7 -39 4 -61 -16z"/>
<path d="M2028 2408 c-52 -41 -67 -162 -34 -273 5 -16 24 -61 50 -118 28 -63
40 -114 45 -199 1 -19 31 -25 31 -7 0 6 11 33 25 61 13 27 20 46 14 42 -8 -4
-8 -1 -2 12 10 21 10 23 0 76 -5 21 -8 41 -9 45 -1 5 -8 14 -15 21 -7 8 -11
18 -8 23 4 5 1 9 -4 9 -6 0 -11 4 -11 10 0 5 -14 33 -32 62 -30 50 -32 58 -32
151 0 53 0 97 -1 97 -1 0 -8 -6 -17 -12z"/>
<path d="M2287 1453 c-4 -6 -17 -9 -29 -6 -44 7 -50 -7 -51 -118 0 -115 4
-181 12 -189 13 -11 51 -70 51 -78 0 -4 8 -17 18 -28 48 -55 73 -115 72 -172
0 -83 -4 -79 77 -81 40 -1 73 2 74 6 1 4 2 36 3 70 2 59 31 143 49 143 4 0 7
7 7 15 0 8 5 15 10 15 6 0 10 6 10 14 0 8 8 22 18 32 9 10 17 21 17 25 0 4 4
11 8 16 25 24 34 75 33 188 -2 128 -7 150 -37 142 -10 -3 -20 0 -23 7 -2 6 -5
6 -5 1 -1 -6 -19 -10 -40 -8 -47 2 -50 -5 -53 -140 -1 -63 -5 -90 -15 -94 -7
-3 -13 -10 -13 -17 -1 -15 -36 -56 -48 -56 -5 0 -22 19 -38 43 -23 34 -28 54
-29 108 -1 36 -5 71 -9 77 -3 6 -2 13 4 17 7 4 7 12 0 26 -6 10 -7 19 -3 19 4
0 -2 6 -13 14 -12 9 -23 11 -30 5 -8 -7 -13 -6 -16 3 -3 8 -6 9 -11 1z"/>
<path d="M1827 1443 c-2 -1 -14 -4 -28 -6 -13 -2 -29 -14 -35 -25 -6 -12 -13
-20 -16 -17 -2 3 -5 -1 -5 -7 0 -11 -78 -185 -103 -229 -9 -16 -11 -352 -2
-377 3 -7 10 -11 18 -8 7 3 14 0 16 -5 2 -7 12 -7 29 0 15 5 30 6 35 1 5 -4
19 -4 32 1 22 8 23 13 24 102 0 20 3 38 7 38 3 1 34 3 69 4 67 4 63 7 67 -60
1 -16 4 -42 8 -56 6 -24 9 -25 68 -22 33 2 66 9 72 16 12 12 13 93 5 200 -3
29 0 47 6 47 7 0 8 3 1 8 -5 4 -11 23 -11 42 -2 52 -15 100 -27 100 -6 0 -7 3
-4 7 4 3 2 12 -3 18 -6 7 -33 57 -61 111 -28 55 -55 103 -60 109 -8 8 -95 16
-102 8z m43 -267 c0 -2 3 -11 6 -19 4 -11 -1 -13 -20 -10 -16 3 -23 10 -19 19
4 12 33 21 33 10z"/>
<path d="M2811 1441 c-15 -10 -17 -32 -25 -428 -3 -152 -1 -225 6 -229 18 -11
116 -10 130 1 13 10 15 22 19 123 l2 53 123 -3 c68 -2 124 0 124 4 0 4 7 8 15
8 8 0 15 6 15 14 0 8 6 16 13 18 9 4 13 53 14 193 l2 187 -27 28 c-25 25 -35
27 -112 29 -47 1 -130 4 -185 6 -55 3 -106 1 -114 -4z m199 -231 c0 -3 18 -4
40 -4 31 2 38 -1 31 -10 -6 -7 -32 -11 -63 -10 -71 3 -68 3 -68 15 0 5 5 7 10
4 6 -3 10 -2 10 4 0 5 9 9 20 8 11 -1 20 -4 20 -7z"/>
<path d="M1125 1414 c-6 -1 -27 -5 -49 -9 -21 -3 -35 -9 -32 -12 3 -3 1 -14
-4 -24 -7 -12 -7 -20 0 -24 6 -4 7 -12 3 -18 -8 -13 -11 -107 -3 -107 3 0 5
-28 6 -63 1 -58 9 -220 18 -350 3 -33 7 -61 9 -63 6 -7 28 -7 122 0 44 2 132
8 195 11 63 4 116 8 119 10 2 3 5 15 6 29 2 14 6 30 10 35 3 6 1 11 -5 11 -8
0 -8 6 0 20 6 11 7 20 3 20 -4 0 -9 37 -10 83 -1 45 -4 102 -6 127 l-3 45 -67
-1 c-37 0 -70 -4 -74 -7 -3 -4 -7 -36 -8 -72 -1 -36 -3 -67 -6 -69 -8 -8 -116
-14 -127 -7 -7 4 -13 52 -16 123 -2 64 -7 121 -10 127 -4 6 -2 11 4 11 6 0 8
5 4 12 -5 7 -10 42 -12 78 -1 36 -7 69 -12 74 -10 10 -37 14 -55 10z"/>
<path d="M3545 1410 c-3 -6 -10 -8 -15 -5 -5 3 -11 -3 -15 -14 -3 -11 -17 -36
-30 -55 -13 -20 -22 -36 -19 -36 3 0 -8 -19 -24 -42 -52 -76 -73 -128 -78
-191 -9 -116 -11 -298 -3 -303 15 -9 129 -8 138 2 5 5 11 32 12 59 1 28 6 55
10 60 9 12 90 12 108 1 6 -4 11 -4 12 1 0 4 4 -1 8 -12 5 -11 7 -41 5 -67 -4
-47 13 -77 36 -63 5 3 10 1 10 -6 0 -8 3 -9 13 0 8 6 16 8 20 5 3 -3 17 -7 31
-8 29 -4 39 12 42 67 1 20 3 38 4 40 1 1 4 31 5 67 2 36 5 80 8 98 2 17 1 32
-3 32 -4 0 -6 16 -5 36 1 19 -4 46 -11 60 -7 13 -13 27 -14 29 0 3 -11 30 -25
61 -14 31 -25 59 -25 63 0 3 -9 23 -19 43 -11 19 -17 39 -14 42 4 3 1 6 -6 6
-7 0 -10 4 -7 9 9 13 -22 23 -86 28 -33 2 -59 -1 -63 -7z m73 -270 c11 -18 10
-20 -18 -20 -28 0 -30 2 -20 20 6 11 14 20 18 20 4 0 13 -9 20 -20z"/>
<path d="M3989 1388 c-10 -4 -20 -17 -20 -30 -6 -101 -7 -123 -9 -123 -1 0 -3
-22 -6 -50 -10 -130 -14 -174 -19 -230 -11 -110 -11 -204 0 -217 11 -14 12
-15 145 -23 52 -3 124 -9 160 -12 84 -7 129 -7 135 -1 3 2 7 27 9 54 3 27 5
49 6 49 1 0 2 28 3 62 1 34 5 65 9 69 4 3 4 14 -1 23 -4 9 -7 32 -5 52 1 20
-1 41 -5 47 -10 16 -128 25 -137 11 -4 -7 -8 -28 -8 -48 -1 -20 -4 -40 -7 -46
-4 -5 -5 -17 -4 -26 2 -13 -6 -15 -49 -13 -64 4 -98 12 -92 23 5 8 16 113 21
211 2 30 4 55 5 55 6 0 5 63 -1 80 -3 11 -3 29 1 40 9 25 -7 42 -38 40 -12 -1
-22 1 -22 4 0 8 -47 7 -71 -1z"/>
<path d="M748 1384 c-2 -1 -42 -5 -88 -8 -47 -2 -85 -5 -85 -6 0 -1 -23 -3
-51 -5 -28 -1 -56 -5 -62 -9 -10 -6 -12 -236 -2 -236 4 0 9 -65 14 -182 0 -21
3 -38 6 -38 3 0 6 -28 8 -63 3 -88 7 -120 14 -133 8 -11 90 -11 127 1 20 6 21
12 18 96 -2 49 -1 89 2 90 22 3 85 9 136 13 135 10 140 16 139 155 0 58 -4
135 -9 171 -4 36 -8 74 -10 85 -3 31 -15 53 -33 61 -17 7 -119 14 -124 8z
m-84 -246 c-5 -7 -3 -8 7 -2 8 4 32 9 53 10 26 1 34 -1 25 -7 -25 -14 -72 -19
-104 -13 -27 6 -28 8 -10 15 29 11 37 11 29 -3z"/>
<path d="M860 454 c0 -5 -23 -7 -50 -6 -68 5 -97 -14 -102 -68 -2 -22 0 -40 5
-40 4 0 6 -4 2 -9 -6 -11 35 -42 47 -35 4 3 8 0 8 -5 0 -6 5 -10 12 -9 8 2 12
-27 12 -105 1 -96 3 -110 20 -123 38 -28 162 -8 143 23 -3 5 -2 15 3 23 4 7 4
24 0 36 -6 14 -5 26 0 29 7 4 6 13 0 25 -7 13 -7 21 0 25 8 5 8 11 0 20 -8 9
-8 15 0 20 6 3 8 10 5 15 -6 10 7 20 37 25 32 6 45 28 44 72 -2 60 -17 77 -69
79 -25 1 -49 4 -54 7 -5 3 -15 2 -23 -3 -9 -5 -19 -5 -27 2 -7 6 -13 7 -13 2z"/>
<path d="M1426 453 c-1 -1 -23 -3 -49 -4 -26 -2 -47 -6 -47 -11 0 -4 -7 -8
-16 -8 -8 0 -13 -4 -9 -9 3 -6 0 -13 -7 -18 -27 -17 -23 -133 5 -173 15 -22
15 -25 0 -42 -25 -27 -25 -106 -1 -130 18 -18 31 -19 144 -16 112 3 126 5 146
25 19 20 22 33 22 105 1 56 -3 83 -12 86 -6 2 -12 10 -12 18 0 9 -4 12 -10 9
-5 -3 -3 9 4 27 15 38 14 104 -3 121 -6 6 -19 12 -28 14 -20 4 -124 9 -127 6z"/>
<path d="M1950 450 c0 -7 -8 -9 -19 -5 -11 3 -22 1 -26 -5 -3 -6 -10 -8 -14
-6 -10 7 -10 6 -15 -186 -3 -153 -2 -169 16 -188 14 -15 31 -20 68 -20 56 0
84 20 77 57 -2 13 0 26 5 29 4 3 6 10 2 15 -3 6 11 10 38 9 23 -1 50 0 59 2
29 6 60 32 64 53 2 11 4 22 5 25 6 15 4 88 -2 108 -4 12 -3 22 2 22 11 0 -8
37 -34 67 -15 17 -23 20 -33 11 -9 -7 -13 -7 -13 1 0 6 -13 9 -30 7 -17 -2
-33 1 -36 5 -3 5 -11 6 -17 2 -19 -12 -37 -12 -37 0 0 8 -3 8 -12 -1 -7 -7
-17 -8 -30 -1 -12 7 -18 6 -18 -1z m91 -150 c6 0 7 5 3 11 -4 7 0 10 11 7 20
-3 29 -34 13 -45 -7 -3 -8 -1 -4 5 4 7 -1 10 -14 9 -11 -1 -20 -6 -20 -12 0
-5 -4 -4 -9 4 -5 8 -6 21 -3 30 4 10 7 11 10 3 2 -7 8 -12 13 -12z"/>
<path d="M2361 455 c-1 -5 -18 -9 -39 -9 -44 2 -77 -18 -69 -41 4 -8 1 -15 -6
-15 -8 0 -6 -4 3 -10 8 -5 11 -10 5 -10 -6 0 -10 -33 -10 -81 1 -44 -3 -83 -7
-85 -5 -3 -5 -11 -1 -17 4 -7 9 -32 10 -57 5 -87 7 -88 162 -88 173 0 172 0
175 107 1 45 -2 81 -6 81 -4 0 -5 6 -2 13 3 8 -1 19 -8 25 -16 13 -108 23
-108 12 0 -5 -10 -6 -22 -2 -14 3 -19 2 -14 -6 4 -7 3 -12 -2 -12 -5 0 -10 33
-11 73 -2 84 -7 107 -26 107 -7 0 -16 6 -18 13 -3 6 -6 8 -6 2z"/>
<path d="M3053 449 c-18 -3 -39 -11 -46 -17 -22 -18 -11 -192 12 -192 18 0 54
-87 56 -132 1 -27 6 -53 11 -58 14 -14 133 -15 146 -2 7 7 12 37 13 68 1 43 5
59 20 70 10 8 16 14 12 14 -4 0 5 18 20 41 27 41 38 111 26 172 -5 23 -12 28
-47 34 -22 4 -45 6 -51 4 -5 -2 -17 -4 -25 -5 -8 0 -21 -7 -29 -14 -8 -8 -17
-9 -25 -3 -6 5 -20 11 -31 13 -11 1 -22 6 -25 9 -3 3 -20 2 -37 -2z"/>
<path d="M3655 450 c-4 -6 -13 -9 -20 -6 -7 2 -21 -1 -31 -9 -16 -11 -18 -32
-19 -184 -1 -115 2 -177 10 -187 13 -18 93 -36 101 -23 3 5 9 7 13 4 8 -5 39
24 40 38 1 4 1 23 1 42 0 31 3 34 18 27 31 -15 97 -2 128 25 13 12 20 30 19
51 0 17 4 32 9 32 6 0 5 5 -1 11 -8 8 -8 20 -3 35 5 13 6 24 2 24 -4 0 -8 15
-8 34 -1 32 -25 69 -46 72 -4 1 -9 3 -10 4 -2 2 -31 4 -64 5 -34 1 -66 5 -73
9 -6 4 -11 2 -11 -4 0 -12 -32 -10 -41 4 -4 4 -10 3 -14 -4z m95 -140 c9 13
10 13 10 0 0 -12 2 -12 9 -2 7 11 9 10 14 -3 5 -11 3 -14 -5 -9 -8 5 -9 2 -5
-10 6 -14 3 -15 -13 -6 -11 6 -24 9 -28 6 -4 -2 -9 5 -9 17 -2 17 0 19 7 7 9
-13 11 -13 20 0z"/>
<path d="M4120 450 c-7 -4 -19 -6 -25 -3 -12 4 -60 -33 -65 -49 -1 -4 -4 -17
-7 -28 -3 -11 -10 -20 -16 -20 -6 0 -7 -3 -4 -7 4 -3 0 -15 -10 -25 -9 -10
-13 -18 -9 -18 4 0 0 -7 -9 -16 -9 -9 -14 -23 -11 -30 3 -8 2 -14 -3 -14 -4 0
-7 -35 -5 -77 2 -96 1 -88 20 -108 20 -20 112 -18 133 3 9 9 16 10 20 3 9 -14
92 -25 124 -17 30 7 43 42 41 111 -2 91 -8 125 -21 125 -7 0 -10 7 -7 15 4 8
1 15 -6 15 -6 0 -9 4 -5 9 3 5 1 12 -5 16 -6 3 -17 23 -25 42 -13 31 -48 67
-65 68 -3 0 -10 3 -15 7 -6 4 -17 3 -25 -2z"/>
<path d="M34 442 c3 -6 -1 -13 -10 -16 -8 -3 -12 -10 -9 -16 3 -5 3 -10 -2
-10 -4 0 -8 -72 -8 -160 0 -88 4 -160 8 -160 5 0 6 -4 3 -8 -12 -21 39 -30
163 -30 116 0 135 2 151 18 10 10 17 27 16 37 -2 10 2 21 8 25 6 5 7 8 1 8
-12 0 -12 51 0 70 6 9 4 11 -5 5 -9 -5 -10 -2 -5 14 11 36 -30 66 -90 66 -31
0 -53 -5 -59 -14 -7 -11 -10 -11 -17 0 -13 20 -11 31 4 23 9 -6 9 -4 1 7 -7 8
-12 35 -12 61 -2 75 -11 84 -82 87 -37 1 -60 -2 -56 -7z"/>
<path d="M400 431 c-10 -12 -15 -40 -15 -75 0 -31 -4 -56 -8 -56 -4 0 -3 -8 2
-19 6 -10 7 -21 4 -25 -11 -11 -12 -156 -1 -156 5 0 7 -4 4 -9 -8 -13 4 -42
15 -35 5 3 9 0 9 -6 0 -7 39 -10 124 -9 l125 1 7 32 c12 49 7 87 -15 117 -26
36 -27 83 -2 106 33 31 33 122 -1 144 -4 3 -59 6 -121 7 -99 2 -114 0 -127
-17z"/>
<path d="M1112 433 c-28 -14 -29 -17 -25 -66 2 -29 4 -60 4 -70 0 -25 46 -51
83 -49 45 4 72 38 71 90 -1 24 2 45 7 48 4 3 2 12 -6 19 -8 8 -16 19 -18 25
-5 16 -84 19 -116 3z"/>
<path d="M2735 440 c-11 -4 -33 -34 -49 -67 -16 -32 -34 -64 -40 -72 -10 -13
-14 -26 -21 -74 -3 -16 -7 -33 -10 -38 -4 -5 -2 -9 4 -9 7 0 7 -8 0 -27 -5
-14 -6 -29 -2 -32 5 -3 8 -16 7 -28 -2 -35 11 -45 65 -51 36 -3 58 0 75 11 19
13 27 13 42 3 11 -7 42 -14 71 -15 48 -2 53 0 66 26 15 32 17 200 1 211 -11 8
-38 64 -36 75 1 4 -2 7 -7 7 -5 0 -14 14 -21 31 -7 17 -23 36 -34 44 -24 14
-81 17 -111 5z"/>
<path d="M4354 441 c3 -5 0 -11 -8 -14 -12 -5 -18 -68 -18 -194 0 -29 -4 -41
-12 -36 -6 4 -5 -1 3 -10 10 -13 11 -20 2 -30 -6 -8 -8 -17 -4 -21 4 -3 8 -20
9 -37 4 -52 24 -58 177 -57 106 1 140 5 149 16 16 19 19 93 5 111 -9 12 -9 13
1 7 8 -5 12 -1 12 11 0 11 -6 25 -12 32 -10 11 -10 13 0 7 15 -9 15 -4 -1 28
-8 14 -17 23 -20 19 -4 -3 -7 -1 -7 5 0 7 -5 12 -11 12 -5 0 -7 -6 -3 -12 5
-9 4 -10 -4 -3 -18 17 -108 3 -104 -15 2 -8 0 -11 -5 -7 -4 5 -8 12 -8 15 0 4
-4 13 -8 20 -5 7 -4 12 3 12 6 0 8 5 4 11 -3 6 -6 31 -6 56 2 69 -12 83 -81
83 -32 0 -56 -4 -53 -9z"/>
<path d="M4719 431 c-10 -11 -14 -46 -15 -133 -1 -79 -6 -123 -14 -133 -11
-13 -10 -14 4 -9 14 5 15 2 7 -18 -13 -34 -3 -75 23 -91 39 -25 135 -10 137
21 5 54 4 100 -3 120 -5 14 -3 22 3 22 8 0 8 4 0 13 -6 8 -8 17 -5 20 10 10
11 177 2 171 -4 -3 -8 2 -8 10 0 17 -7 19 -76 21 -25 1 -46 -5 -55 -14z"/>
</g>
</svg>
